<svg width="125" height="416" viewBox="0 0 125 416" fill="none" xmlns="http://www.w3.org/2000/svg">
<mask id="path-1-inside-1_4_242" fill="white">
<path d="M0.0154352 227.129C0.713191 217.491 3.16702 208.067 3.59769 205.368C5.3738 194.185 5.90463 180.538 7.45037 168.012C8.34177 160.786 9.3233 156.849 10.4617 150.724C11.2096 146.699 12.0442 143.828 12.5316 121.243C12.8421 106.946 13.0491 90.0655 16.7182 81.975C19.0218 76.8966 24.7774 76.7754 32.4794 75.4663C39.6306 74.248 46.311 71.8787 49.1054 68.3282C51.5659 65.1041 53.8228 58.4406 49.733 53.0727C47.0722 49.5794 46.6282 47.0453 46.1474 41.9938C45.6567 42.3034 44.7352 42.0914 44.3947 41.25C44.0609 40.4255 44.2411 39.261 44.2077 38.7158C44.0876 36.8211 42.6587 35.9225 43.0359 32.786C43.1895 31.5105 44.2712 31.0662 45.0824 31.4095C45.0824 24.8368 42.4517 12.341 55.0847 7.0371C55.0981 3.601 57.1146 0 62.4996 0C67.8847 0 69.9045 3.601 69.9145 7.0371C82.5476 12.3444 79.9168 24.8402 79.9168 31.4095C80.7314 31.0629 81.8098 31.5071 81.9633 32.786C82.3406 35.9225 80.9117 36.8211 80.7915 38.7158C80.7581 39.2577 80.9384 40.4221 80.6046 41.25C80.264 42.0914 79.3426 42.3067 78.8518 41.9938C78.3711 47.0419 77.927 49.5794 75.2662 53.0727C71.1765 58.4406 73.4334 65.1041 75.8939 68.3282C78.6882 71.8821 85.3687 74.2513 92.5198 75.4663C100.222 76.7754 105.978 76.8966 108.281 81.975C111.95 90.0655 112.157 106.946 112.468 121.243C112.955 143.828 113.79 146.699 114.538 150.724C115.676 156.849 116.658 160.786 117.549 168.012C119.095 180.538 119.625 194.185 121.402 205.368C121.832 208.067 124.283 217.491 124.984 227.129C125.107 228.815 124.5 230.417 123.956 233.015C123.298 236.159 122.917 237.111 121.896 239.14C121.705 239.517 119.252 243.354 116.971 246.282C115.676 247.944 115.269 247.517 113.459 249.529C112.721 250.351 111.479 250.313 111.329 248.688C111.276 248.099 111.383 247.207 112.027 246.087C112.514 245.238 113.349 244.744 113.526 244.037C113.967 242.277 114.798 239.871 115.769 237.538C116.077 236.798 115.986 233.17 116.234 230.908C116.4 229.391 115.289 227.89 114.518 227.126C114.484 227.153 113.963 226.533 113.923 227.183C113.87 228.071 113.389 231.841 113.175 232.736C112.788 234.355 111.937 236.226 111.426 237.145C110.505 238.804 108.612 238.232 109.112 235.553C109.393 234.055 109.48 232.1 109.48 230.888C109.48 228.452 109.346 224.329 109.326 222.549C109.256 216.306 110.194 214.761 110.231 211.019C110.237 210.326 110.244 209.7 110.094 208.905C106.916 191.883 102.532 186.256 99 172.885C97.3374 166.588 97.314 159.467 97.2238 157.694C96.7264 148.075 94.3527 134.923 93.9521 119.338C93.3211 128.993 91.2645 132.944 90.303 144.229C89.2881 156.122 90.7805 161.561 93.241 170.169C95.2241 177.099 98.3656 185.734 101.19 197.086C107.673 223.165 104.375 244.909 99.2503 277.395C96.5261 294.66 100.693 302.087 101.367 314.576C101.858 323.747 101.09 335.311 97.1604 360.366C92.827 387.986 92.4731 390.43 93.5748 398.056C93.6783 398.766 94.0756 400.546 94.4529 402.734C94.6532 403.901 95.2808 406.143 96.3492 407.408C97.3474 408.589 98.9332 410.289 100.032 410.79C101.507 411.463 102.168 413.543 101.734 414.513C101.177 415.754 100.295 416 98.576 416H81.7764C77.7234 416 77.2994 413.967 77.4597 411.08C77.5698 409.087 78.3811 407.095 78.8351 405.449C79.406 403.366 79.3626 402.38 79.7799 400.152C80.2373 397.736 80.8683 396.82 81.112 393.351C81.5327 387.364 80.9852 372.283 79.1022 358.7C77.0457 343.896 74.0076 328.475 73.1997 321.465C71.4102 306.008 73.7839 292.741 72.6822 280.71C70.9462 261.773 67.0401 250.293 63.2475 222.811C63.2007 222.478 63.0839 222.707 62.4996 222.707C61.9154 222.707 61.7952 222.478 61.7518 222.811C57.9592 250.293 54.0531 261.776 52.3171 280.71C51.2154 292.741 53.5891 306.008 51.7996 321.465C50.9917 328.479 47.9536 343.896 45.8971 358.7C44.0141 372.283 43.4633 387.364 43.8873 393.351C44.131 396.817 44.7619 397.736 45.2193 400.152C45.6366 402.38 45.5899 403.366 46.1641 405.449C46.6148 407.095 47.4261 409.087 47.5396 411.08C47.7032 413.967 47.2759 416 43.2229 416H26.4233C24.7073 416 23.8259 415.758 23.2651 414.513C22.831 413.543 23.4921 411.467 24.9677 410.79C26.0661 410.289 27.6486 408.589 28.6501 407.408C29.7185 406.143 30.3461 403.901 30.5464 402.734C30.927 400.546 31.321 398.766 31.4245 398.056C32.5262 390.43 32.1723 387.986 27.8389 360.366C23.9094 335.314 23.1415 323.747 23.6323 314.576C24.3067 302.087 28.4732 294.656 25.7489 277.395C20.6243 244.909 17.3258 223.161 23.8092 197.086C26.6337 185.734 29.7719 177.099 31.7583 170.169C34.2222 161.564 35.7112 156.125 34.6962 144.229C33.7314 132.944 31.6782 128.99 31.0472 119.338C30.6466 134.92 28.2729 148.075 27.7754 157.694C27.6853 159.467 27.6619 166.588 25.9993 172.885C22.4671 186.256 18.0836 191.883 14.9053 208.905C14.7584 209.7 14.7651 210.326 14.7685 211.019C14.8052 214.761 15.7433 216.306 15.6732 222.549C15.6532 224.332 15.5196 228.455 15.5196 230.888C15.5196 232.1 15.6064 234.055 15.8869 235.553C16.3877 238.232 14.4947 238.804 13.5733 237.145C13.0625 236.226 12.2111 234.355 11.8239 232.736C11.6102 231.841 11.1295 228.071 11.076 227.183C11.036 226.53 10.5152 227.149 10.4818 227.126C9.71057 227.89 8.59883 229.391 8.76576 230.908C9.01615 233.173 8.92601 236.801 9.22982 237.538C10.198 239.871 11.0326 242.277 11.4733 244.037C11.6503 244.744 12.4849 245.238 12.9723 246.087C13.6167 247.204 13.7235 248.099 13.6701 248.688C13.5198 250.313 12.2779 250.351 11.5401 249.529C9.7306 247.513 9.3233 247.944 8.02794 246.282C5.74772 243.354 3.29389 239.514 3.10359 239.14C2.07866 237.111 1.7014 236.159 1.04371 233.015C0.499524 230.417 -0.104752 228.812 0.0154352 227.129Z"/>
</mask>
<path d="M0.0154352 227.129C0.713191 217.491 3.16702 208.067 3.59769 205.368C5.3738 194.185 5.90463 180.538 7.45037 168.012C8.34177 160.786 9.3233 156.849 10.4617 150.724C11.2096 146.699 12.0442 143.828 12.5316 121.243C12.8421 106.946 13.0491 90.0655 16.7182 81.975C19.0218 76.8966 24.7774 76.7754 32.4794 75.4663C39.6306 74.248 46.311 71.8787 49.1054 68.3282C51.5659 65.1041 53.8228 58.4406 49.733 53.0727C47.0722 49.5794 46.6282 47.0453 46.1474 41.9938C45.6567 42.3034 44.7352 42.0914 44.3947 41.25C44.0609 40.4255 44.2411 39.261 44.2077 38.7158C44.0876 36.8211 42.6587 35.9225 43.0359 32.786C43.1895 31.5105 44.2712 31.0662 45.0824 31.4095C45.0824 24.8368 42.4517 12.341 55.0847 7.0371C55.0981 3.601 57.1146 0 62.4996 0C67.8847 0 69.9045 3.601 69.9145 7.0371C82.5476 12.3444 79.9168 24.8402 79.9168 31.4095C80.7314 31.0629 81.8098 31.5071 81.9633 32.786C82.3406 35.9225 80.9117 36.8211 80.7915 38.7158C80.7581 39.2577 80.9384 40.4221 80.6046 41.25C80.264 42.0914 79.3426 42.3067 78.8518 41.9938C78.3711 47.0419 77.927 49.5794 75.2662 53.0727C71.1765 58.4406 73.4334 65.1041 75.8939 68.3282C78.6882 71.8821 85.3687 74.2513 92.5198 75.4663C100.222 76.7754 105.978 76.8966 108.281 81.975C111.95 90.0655 112.157 106.946 112.468 121.243C112.955 143.828 113.79 146.699 114.538 150.724C115.676 156.849 116.658 160.786 117.549 168.012C119.095 180.538 119.625 194.185 121.402 205.368C121.832 208.067 124.283 217.491 124.984 227.129C125.107 228.815 124.5 230.417 123.956 233.015C123.298 236.159 122.917 237.111 121.896 239.14C121.705 239.517 119.252 243.354 116.971 246.282C115.676 247.944 115.269 247.517 113.459 249.529C112.721 250.351 111.479 250.313 111.329 248.688C111.276 248.099 111.383 247.207 112.027 246.087C112.514 245.238 113.349 244.744 113.526 244.037C113.967 242.277 114.798 239.871 115.769 237.538C116.077 236.798 115.986 233.17 116.234 230.908C116.4 229.391 115.289 227.89 114.518 227.126C114.484 227.153 113.963 226.533 113.923 227.183C113.87 228.071 113.389 231.841 113.175 232.736C112.788 234.355 111.937 236.226 111.426 237.145C110.505 238.804 108.612 238.232 109.112 235.553C109.393 234.055 109.48 232.1 109.48 230.888C109.48 228.452 109.346 224.329 109.326 222.549C109.256 216.306 110.194 214.761 110.231 211.019C110.237 210.326 110.244 209.7 110.094 208.905C106.916 191.883 102.532 186.256 99 172.885C97.3374 166.588 97.314 159.467 97.2238 157.694C96.7264 148.075 94.3527 134.923 93.9521 119.338C93.3211 128.993 91.2645 132.944 90.303 144.229C89.2881 156.122 90.7805 161.561 93.241 170.169C95.2241 177.099 98.3656 185.734 101.19 197.086C107.673 223.165 104.375 244.909 99.2503 277.395C96.5261 294.66 100.693 302.087 101.367 314.576C101.858 323.747 101.09 335.311 97.1604 360.366C92.827 387.986 92.4731 390.43 93.5748 398.056C93.6783 398.766 94.0756 400.546 94.4529 402.734C94.6532 403.901 95.2808 406.143 96.3492 407.408C97.3474 408.589 98.9332 410.289 100.032 410.79C101.507 411.463 102.168 413.543 101.734 414.513C101.177 415.754 100.295 416 98.576 416H81.7764C77.7234 416 77.2994 413.967 77.4597 411.08C77.5698 409.087 78.3811 407.095 78.8351 405.449C79.406 403.366 79.3626 402.38 79.7799 400.152C80.2373 397.736 80.8683 396.82 81.112 393.351C81.5327 387.364 80.9852 372.283 79.1022 358.7C77.0457 343.896 74.0076 328.475 73.1997 321.465C71.4102 306.008 73.7839 292.741 72.6822 280.71C70.9462 261.773 67.0401 250.293 63.2475 222.811C63.2007 222.478 63.0839 222.707 62.4996 222.707C61.9154 222.707 61.7952 222.478 61.7518 222.811C57.9592 250.293 54.0531 261.776 52.3171 280.71C51.2154 292.741 53.5891 306.008 51.7996 321.465C50.9917 328.479 47.9536 343.896 45.8971 358.7C44.0141 372.283 43.4633 387.364 43.8873 393.351C44.131 396.817 44.7619 397.736 45.2193 400.152C45.6366 402.38 45.5899 403.366 46.1641 405.449C46.6148 407.095 47.4261 409.087 47.5396 411.08C47.7032 413.967 47.2759 416 43.2229 416H26.4233C24.7073 416 23.8259 415.758 23.2651 414.513C22.831 413.543 23.4921 411.467 24.9677 410.79C26.0661 410.289 27.6486 408.589 28.6501 407.408C29.7185 406.143 30.3461 403.901 30.5464 402.734C30.927 400.546 31.321 398.766 31.4245 398.056C32.5262 390.43 32.1723 387.986 27.8389 360.366C23.9094 335.314 23.1415 323.747 23.6323 314.576C24.3067 302.087 28.4732 294.656 25.7489 277.395C20.6243 244.909 17.3258 223.161 23.8092 197.086C26.6337 185.734 29.7719 177.099 31.7583 170.169C34.2222 161.564 35.7112 156.125 34.6962 144.229C33.7314 132.944 31.6782 128.99 31.0472 119.338C30.6466 134.92 28.2729 148.075 27.7754 157.694C27.6853 159.467 27.6619 166.588 25.9993 172.885C22.4671 186.256 18.0836 191.883 14.9053 208.905C14.7584 209.7 14.7651 210.326 14.7685 211.019C14.8052 214.761 15.7433 216.306 15.6732 222.549C15.6532 224.332 15.5196 228.455 15.5196 230.888C15.5196 232.1 15.6064 234.055 15.8869 235.553C16.3877 238.232 14.4947 238.804 13.5733 237.145C13.0625 236.226 12.2111 234.355 11.8239 232.736C11.6102 231.841 11.1295 228.071 11.076 227.183C11.036 226.53 10.5152 227.149 10.4818 227.126C9.71057 227.89 8.59883 229.391 8.76576 230.908C9.01615 233.173 8.92601 236.801 9.22982 237.538C10.198 239.871 11.0326 242.277 11.4733 244.037C11.6503 244.744 12.4849 245.238 12.9723 246.087C13.6167 247.204 13.7235 248.099 13.6701 248.688C13.5198 250.313 12.2779 250.351 11.5401 249.529C9.7306 247.513 9.3233 247.944 8.02794 246.282C5.74772 243.354 3.29389 239.514 3.10359 239.14C2.07866 237.111 1.7014 236.159 1.04371 233.015C0.499524 230.417 -0.104752 228.812 0.0154352 227.129Z" stroke="white" stroke-opacity="0.7" stroke-width="8" mask="url(#path-1-inside-1_4_242)"/>
</svg>
